<?xml version="1.0" encoding="UTF-8" standalone="no"?>
<!-- Created with Inkscape (http://www.inkscape.org/) -->

<svg
   xmlns:dc="http://purl.org/dc/elements/1.1/"
   xmlns:cc="http://creativecommons.org/ns#"
   xmlns:rdf="http://www.w3.org/1999/02/22-rdf-syntax-ns#"
   xmlns:svg="http://www.w3.org/2000/svg"
   xmlns="http://www.w3.org/2000/svg"
   xmlns:xlink="http://www.w3.org/1999/xlink"
   xmlns:sodipodi="http://sodipodi.sourceforge.net/DTD/sodipodi-0.dtd"
   xmlns:inkscape="http://www.inkscape.org/namespaces/inkscape"
   width="16px"
   height="16px"
   id="svg3640"
   version="1.1"
   inkscape:version="0.47 r22583"
   sodipodi:docname="Setting-icon16.svg"
   inkscape:export-filename="/Users/masa/Setting-icon16.png"
   inkscape:export-xdpi="90"
   inkscape:export-ydpi="90">
  <defs
     id="defs3642">
    <inkscape:perspective
       sodipodi:type="inkscape:persp3d"
       inkscape:vp_x="0 : 8 : 1"
       inkscape:vp_y="0 : 1000 : 0"
       inkscape:vp_z="16 : 8 : 1"
       inkscape:persp3d-origin="8 : 5.3333333 : 1"
       id="perspective3648" />
    <inkscape:perspective
       id="perspective3718"
       inkscape:persp3d-origin="0.5 : 0.33333333 : 1"
       inkscape:vp_z="1 : 0.5 : 1"
       inkscape:vp_y="0 : 1000 : 0"
       inkscape:vp_x="0 : 0.5 : 1"
       sodipodi:type="inkscape:persp3d" />
  </defs>
  <sodipodi:namedview
     id="base"
     pagecolor="#ffffff"
     bordercolor="#666666"
     borderopacity="1.0"
     inkscape:pageopacity="0.0"
     inkscape:pageshadow="2"
     inkscape:zoom="20.385131"
     inkscape:cx="8.0013258"
     inkscape:cy="8.0013258"
     inkscape:current-layer="layer1"
     showgrid="true"
     inkscape:grid-bbox="true"
     inkscape:document-units="px"
     inkscape:window-width="783"
     inkscape:window-height="721"
     inkscape:window-x="25"
     inkscape:window-y="9"
     inkscape:window-maximized="0" />
  <metadata
     id="metadata3645">
    <rdf:RDF>
      <cc:Work
         rdf:about="">
        <dc:format>image/svg+xml</dc:format>
        <dc:type
           rdf:resource="http://purl.org/dc/dcmitype/StillImage" />
        <dc:title></dc:title>
      </cc:Work>
    </rdf:RDF>
  </metadata>
  <g
     id="layer1"
     inkscape:label="Layer 1"
     inkscape:groupmode="layer">
    <image
       y="-3.5380571"
       x="2.0121737"
       id="image3720"
       height="16.636421"
       width="16.761061"
       xlink:href="file:///Users/masa/Desktop/AzPacking/settings_16.png"
       transform="matrix(0.93871102,0.34470512,-0.35072342,0.93647909,0,0)"
       style="fill:#ff6600" />
    <path
       style="fill:#ff4141;fill-opacity:1"
       d="M 5.5122326,14.760233 C 5.0413422,14.58746 4.6310349,14.430047 4.6004386,14.410427 c -0.042855,-0.02748 0.06774,-0.36394 0.4815924,-1.465131 0.2954722,-0.786202 0.5372222,-1.441277 0.5372222,-1.455722 0,-0.01444 -0.640518,-0.255851 -1.4233733,-0.536459 C 3.4130246,10.672508 2.7561139,10.428912 2.7360783,10.411792 2.7160427,10.394672 2.9432289,9.7310495 3.2409365,8.9370765 3.538644,8.143103 3.7748147,7.4860799 3.7657602,7.4770255 3.7567056,7.4679712 3.0945157,7.2242931 2.2942269,6.9355187 L 0.83915642,6.410475 1.2003779,5.4450277 1.5615994,4.4795803 3.0212546,5.0070405 C 3.824065,5.2971441 4.4945522,5.5201334 4.5112261,5.5025726 4.5279001,5.4850118 4.7768433,4.8445739 5.0644334,4.079377 5.3520233,3.3141801 5.6004903,2.673459 5.6165823,2.6555523 5.6326744,2.6376457 6.2882955,2.8552325 7.0735181,3.1390786 7.8587407,3.4229247 8.5221722,3.6468547 8.5478101,3.6367009 8.5734479,3.6265471 8.8336341,2.9755271 9.126001,2.1899897 9.4183683,1.4044524 9.6597142,0.75797992 9.6623251,0.75338426 c 0.0041,-0.007216 1.9132959,0.67328904 1.9377209,0.69067184 0.005,0.00354 -0.238011,0.6643062 -0.539969,1.4683677 -0.466101,1.2411466 -0.538582,1.4660685 -0.479936,1.4893331 0.03799,0.015072 0.685516,0.2491168 1.438941,0.5201002 0.753425,0.2709835 1.383154,0.5053174 1.3994,0.5207421 0.01625,0.015425 -0.209988,0.663747 -0.502741,1.4407161 -0.292753,0.7769692 -0.532393,1.4328395 -0.532534,1.4574898 -1.28e-4,0.02465 0.634092,0.2731036 1.409404,0.552119 0.775313,0.2790154 1.431334,0.520696 1.457825,0.537068 0.03283,0.020288 -0.06343,0.3284101 -0.302258,0.9675729 -0.192733,0.515793 -0.356369,0.944671 -0.363636,0.953063 -0.0073,0.0084 -0.657568,-0.217957 -1.445112,-0.502997 -0.787545,-0.28504 -1.450604,-0.518254 -1.473466,-0.518254 -0.02286,0 -0.287667,0.653222 -0.588457,1.451604 l -0.546891,1.451605 -0.518609,-0.184855 C 9.7267711,12.94606 9.0888593,12.716403 8.5944244,12.537381 8.0999895,12.35836 7.6676444,12.207308 7.6336581,12.201711 c -0.044449,-0.0073 -0.2130299,0.39226 -0.6005937,1.423559 -0.3534786,0.9406 -0.5604457,1.436377 -0.6017333,1.441416 -0.034614,0.0042 -0.4482081,-0.13368 -0.9190985,-0.306453 z M 9.0408349,11.33537 9.2182193,10.86448 c 0.048781,-0.129495 0.101756,-0.235457 0.1177226,-0.235472 0.015967,-1.5e-5 0.2346541,0.07208 0.4859722,0.16021 0.2513179,0.08813 0.4660959,0.150749 0.4772849,0.139153 0.02136,-0.02214 1.428864,-3.7598519 1.450524,-3.8519602 0.0077,-0.032875 -0.166991,-0.1176978 -0.457413,-0.2220629 -0.258458,-0.092878 -0.475863,-0.1748082 -0.483121,-0.1820668 -0.0073,-0.00726 0.0671,-0.2282795 0.165234,-0.4911588 C 11.07256,5.9182434 11.145486,5.6973021 11.136482,5.6901411 11.10114,5.6620375 7.2647317,4.2915843 7.2245614,4.2927134 7.2010168,4.2933752 7.1065113,4.5008891 7.014549,4.7538557 6.9225866,5.0068222 6.8422245,5.2203128 6.8359659,5.2282798 6.8297078,5.2362464 6.608427,5.1635478 6.3442309,5.066728 6.0800353,4.9699077 5.8583186,4.8962476 5.8515276,4.9030387 c -0.012814,0.012814 -1.4737128,3.8855866 -1.4737128,3.906742 0,0.00658 0.2200792,0.092695 0.4890648,0.191357 l 0.4890649,0.1793848 -0.099646,0.2640677 c -0.054806,0.1452371 -0.137714,0.3639542 -0.184241,0.4860376 l -0.084594,0.2219692 0.476426,0.173839 c 1.3872564,0.506182 3.4339019,1.241512 3.4592234,1.242848 0.015967,8.43e-4 0.068942,-0.104419 0.1177226,-0.233914 l 0,0 z"
       id="path3732" />
    <path
       style="fill:#ff4141;fill-opacity:1"
       d="M 5.0451659,2.4611309 4.6447903,2.3110736 4.7832689,1.9392949 C 4.859432,1.7348166 4.9402639,1.5214008 4.9628953,1.4650375 5.0036122,1.3636321 5.0090053,1.3643672 5.4778299,1.5352232 L 5.9516166,1.7078876 5.8134211,2.0792001 C 5.7374136,2.2834221 5.659816,2.4891438 5.640982,2.5363596 5.595974,2.6491925 5.5220336,2.6398566 5.0451659,2.4611309 l 0,0 z"
       id="path3755" />
    <path
       style="fill:#ff4141;fill-opacity:1"
       d="m 1.8554719,11.287737 c -0.2208091,-0.08493 -0.4171002,-0.170438 -0.4362025,-0.190009 -0.027583,-0.02826 0.2420229,-0.84346 0.3024499,-0.914508 0.00844,-0.0099 0.2258546,0.0563 0.4831458,0.147166 0.4134517,0.146012 0.4642408,0.176605 0.4371476,0.263317 -0.092303,0.295415 -0.3246152,0.85777 -0.3525724,0.853464 -0.017874,-0.0028 -0.2131594,-0.0745 -0.4339684,-0.15943 z"
       id="path3757" />
    <path
       style="fill:#ff4141;fill-opacity:1"
       d="m 10.698334,14.510366 c -0.240696,-0.0904 -0.445474,-0.172211 -0.455063,-0.1818 -0.02421,-0.02421 0.275513,-0.830516 0.328751,-0.88441 0.04216,-0.04268 0.931857,0.24739 0.931857,0.303813 0,0.05264 -0.306331,0.868621 -0.336939,0.897518 -0.01704,0.01608 -0.22791,-0.04472 -0.468606,-0.135121 z"
       id="path3759" />
    <path
       style="fill:#ff4141;fill-opacity:1"
       d="m 13.932119,5.7019223 c -0.215843,-0.081916 -0.400926,-0.1564384 -0.411295,-0.1656058 -0.02429,-0.021474 0.291602,-0.8993609 0.331845,-0.9222285 0.02827,-0.016065 0.875969,0.2844745 0.916386,0.3248914 0.04259,0.042591 -0.312425,0.8969807 -0.375678,0.904117 -0.03785,0.00427 -0.245414,-0.059258 -0.461258,-0.1411741 z"
       id="path3761" />
    <path
       style="fill:#ff4141;fill-opacity:1"
       d="M 4.7104441,3.4493569 C 4.4950037,3.3684601 4.3122549,3.2957925 4.3043357,3.2878733 c -0.00792,-0.00792 0.06127,-0.2216398 0.1537538,-0.4749349 0.1108749,-0.303665 0.190723,-0.4554966 0.2344145,-0.4457407 0.099313,0.022176 0.8756758,0.3150457 0.8756758,0.3303342 0,0.099879 -0.3527489,0.8836233 -0.4006096,0.8900821 -0.035979,0.00486 -0.2416857,-0.05736 -0.4571261,-0.1382571 z"
       id="path3763" />
    <path
       style="fill:#ff4141;fill-opacity:1"
       d="M 6.0716225,2.7764976 C 5.8493776,2.7051277 5.6672596,2.6257704 5.6669157,2.6001481 5.665363,2.4844473 5.9794972,1.7396044 6.0284541,1.7429052 c 0.1308008,0.00882 0.8736838,0.3197666 0.8701555,0.36422 -0.00214,0.02698 -0.06468,0.2201359 -0.1389749,0.4292344 C 6.6686058,2.7925552 6.600282,2.9148628 6.5501286,2.9113998 6.5091951,2.9085733 6.2938673,2.8478674 6.0716225,2.7764976 l 0,0 z"
       id="path3765" />
    <path
       style="fill:#ff4141;fill-opacity:1"
       d="M 2.223927,10.307145 C 1.9899247,10.221928 1.7864682,10.140064 1.7718014,10.125225 1.7441415,10.097242 2.0219427,9.2982124 2.082609,9.2312608 2.1015207,9.2103897 2.3161985,9.2639843 2.5596707,9.3503597 L 3.0023474,9.5074061 2.8553078,9.9524437 C 2.774436,10.197214 2.6950196,10.412018 2.678827,10.429784 c -0.016193,0.01777 -0.2208976,-0.03742 -0.4549,-0.122639 l 0,0 z"
       id="path3767" />
    <path
       style="fill:#ff4141;fill-opacity:1"
       d="m 2.8088157,11.633911 c -0.2360789,-0.0853 -0.4292344,-0.176538 -0.4292344,-0.202741 0,-0.03943 0.2909363,-0.856019 0.3207517,-0.900277 0.012636,-0.01876 0.8721446,0.289033 0.9166696,0.328261 0.042142,0.03713 -0.2751461,0.90329 -0.3366545,0.919032 -0.023264,0.006 -0.2354535,-0.05897 -0.4715324,-0.144275 z"
       id="path3769" />
    <path
       style="fill:#ff4141;fill-opacity:1"
       d="m 4.7491553,12.342521 c -0.1941492,-0.07307 -0.3670475,-0.14691 -0.3842186,-0.164081 -0.03681,-0.03681 0.2798159,-0.921779 0.3299463,-0.922201 0.018825,-1.59e-4 0.2219363,0.06763 0.4513584,0.150647 l 0.417131,0.150936 -0.1623288,0.449992 c -0.091527,0.253723 -0.1921101,0.453826 -0.2306093,0.458781 -0.037554,0.0048 -0.2271298,-0.051 -0.421279,-0.124074 l 0,0 z"
       id="path3771" />
    <path
       style="fill:#ff4141;fill-opacity:1"
       d="m 7.7587813,13.436829 c -0.2386232,-0.08938 -0.4446339,-0.173283 -0.4578016,-0.18645 -0.037114,-0.03711 0.2971221,-0.914597 0.3484971,-0.914922 0.045534,-2.89e-4 0.8713305,0.29369 0.9037403,0.321727 0.019888,0.0172 -0.288619,0.864334 -0.3317661,0.910998 -0.015845,0.01714 -0.2240464,-0.04197 -0.4626697,-0.131353 z"
       id="path3773" />
    <path
       style="fill:#ff4141;fill-opacity:1"
       d="M 9.6888303,14.140404 C 9.4594964,14.05692 9.2639274,13.982092 9.2542325,13.974118 c -0.0097,-0.008 0.039108,-0.164769 0.1084505,-0.348434 0.069343,-0.183665 0.1482093,-0.393951 0.1752591,-0.467303 l 0.049181,-0.133367 0.4555605,0.1647 c 0.250558,0.09058 0.45556,0.186593 0.45556,0.213351 0,0.118476 -0.298145,0.894056 -0.342792,0.891722 -0.02731,-0.0014 -0.2372879,-0.0709 -0.4666217,-0.154383 z"
       id="path3775" />
    <path
       style="fill:#ff4141;fill-opacity:1"
       d="m 11.05307,13.526795 -0.475336,-0.170791 0.149825,-0.400043 c 0.0824,-0.220024 0.159995,-0.435167 0.172424,-0.478097 0.01944,-0.06715 0.08988,-0.05366 0.504269,0.0966 l 0.481671,0.174654 -0.13761,0.369425 c -0.07569,0.203183 -0.156127,0.416588 -0.178759,0.474233 -0.04107,0.104625 -0.04198,0.104509 -0.516484,-0.06598 l 0,0 z"
       id="path3777" />
    <path
       style="fill:#ff4141;fill-opacity:1"
       d="M 13.404799,5.458451 C 13.390902,5.4229119 13.26104,5.3527556 13.116217,5.3025481 12.971393,5.2523405 12.782699,5.1823674 12.696896,5.1470523 L 12.540891,5.082843 12.693443,4.6742021 c 0.0839,-0.2247525 0.158569,-0.416784 0.165924,-0.4267366 0.01363,-0.018439 0.709793,0.2210937 0.86222,0.296668 0.07677,0.038061 0.07095,0.077521 -0.06924,0.4701524 -0.166539,0.4664116 -0.209035,0.5426608 -0.247549,0.4441651 l 0,0 z"
       id="path3779" />
    <path
       style="fill:#ff4141;fill-opacity:1"
       d="M 13.564204,6.6739233 C 13.282401,6.5660239 13.15203,6.4916867 13.162029,6.4446055 c 0.0504,-0.2372814 0.327901,-0.880601 0.372802,-0.8642389 0.02965,0.010803 0.243746,0.090827 0.47578,0.1778317 l 0.42188,0.1581901 -0.172088,0.4622896 c -0.09465,0.2542593 -0.196194,0.4606268 -0.225658,0.4585944 -0.02946,-0.00203 -0.241207,-0.075539 -0.470541,-0.1633491 z"
       id="path3781" />
    <path
       style="fill:#dc0000;fill-opacity:1"
       d="M 4.7657473,12.312499 C 4.5807237,12.247208 4.4176041,12.182052 4.4032594,12.167707 4.3737528,12.1382 4.6239216,11.401411 4.6855465,11.336324 c 0.032565,-0.03439 0.833578,0.191266 0.833578,0.234835 0,0.132468 -0.3235062,0.862772 -0.3814388,0.861085 -0.019543,-5.69e-4 -0.1869148,-0.05445 -0.3719384,-0.119745 z"
       id="path3783" />
    <path
       style="fill:#dc0000;fill-opacity:1"
       d="M 7.8492542,13.434105 C 7.660391,13.365147 7.4655962,13.296385 7.4163768,13.2813 c -0.1010077,-0.03096 -0.092104,-0.100303 0.066624,-0.518895 0.1607753,-0.423992 0.1353983,-0.412568 0.5704072,-0.256774 0.2114807,0.07574 0.4019331,0.153121 0.4232275,0.171959 0.029469,0.02607 -0.2402736,0.887826 -0.2763694,0.882928 -0.00419,-5.69e-4 -0.1621489,-0.05746 -0.351012,-0.126413 z"
       id="path3785" />
    <path
       style="fill:#dc0000;fill-opacity:1"
       d="M 2.9437179,8.3521499 C 2.7278743,8.2729338 2.53402,8.1912011 2.5129305,8.1705219 2.4781799,8.1364472 2.7417715,7.3561793 2.8166749,7.2713965 2.8406416,7.2442686 3.6232001,7.4949337 3.6933033,7.5521935 3.7119823,7.5674504 3.4041147,8.427438 3.3662682,8.4657231 3.3497091,8.4824741 3.1595615,8.4313661 2.9437179,8.3521499 z"
       id="path3787" />
    <path
       style="fill:#dc0000;fill-opacity:1"
       d="M 4.0308513,5.3338929 C 3.8193612,5.2643776 3.6364262,5.1817085 3.624329,5.1501837 3.6122319,5.118659 3.670915,4.9132709 3.7547361,4.6937658 L 3.9071381,4.2946655 4.2593692,4.42131 c 0.1937271,0.069654 0.4001455,0.1446737 0.4587077,0.1667093 L 4.8245535,4.628084 4.666746,5.0321575 C 4.5799519,5.2543979 4.4878876,5.441643 4.4621587,5.4482577 4.4364297,5.4548724 4.2423415,5.4034083 4.0308513,5.3338929 l 0,0 z"
       id="path3789" />
    <path
       style="fill:#dc0000;fill-opacity:1"
       d="M 8.1190587,3.4785898 C 7.9167053,3.4125226 7.7242269,3.3409302 7.6913288,3.3194956 7.646424,3.2902379 7.6710359,3.1754818 7.7900664,2.8591196 L 7.9486187,2.4377157 8.3734505,2.5912803 c 0.2336575,0.08446 0.4389268,0.1678001 0.456154,0.185199 0.034982,0.035331 -0.2657616,0.828156 -0.3127713,0.8245335 C 8.5004106,3.5997473 8.321412,3.544657 8.1190587,3.4785898 z"
       id="path3791" />
    <path
       style="fill:#dc0000;fill-opacity:1"
       d="m 11.063271,4.5499439 c -0.25559,-0.092242 -0.470134,-0.1731373 -0.476763,-0.1797665 -0.009,-0.00905 0.269799,-0.7915712 0.303333,-0.8512305 0.0066,-0.011775 0.917842,0.3227643 0.940288,0.3452099 0.0076,0.00758 -0.0573,0.202725 -0.144179,0.4336454 l -0.15797,0.4198552 -0.464709,-0.1677135 0,0 z"
       id="path3793" />
    <path
       style="fill:#dc0000;fill-opacity:1"
       d="M 12.892873,8.5260192 12.442292,8.3511238 12.589098,7.9529644 c 0.08074,-0.2189877 0.153526,-0.4048791 0.161739,-0.4130921 0.02674,-0.026737 0.918548,0.3101208 0.923947,0.348996 0.0083,0.059709 -0.2748,0.8164362 -0.304566,0.8141247 -0.01472,-0.00114 -0.229525,-0.080781 -0.477345,-0.1769738 l 0,0 z"
       id="path3795" />
    <path
       style="fill:#dc0000;fill-opacity:1"
       d="m 11.994432,11.654221 c -0.121412,-0.04781 -0.324303,-0.1252 -0.450869,-0.171971 l -0.23012,-0.08504 0.152193,-0.426282 c 0.08371,-0.234455 0.168221,-0.44477 0.187811,-0.467366 0.04301,-0.04961 0.92965,0.263226 0.92965,0.328012 0,0.07383 -0.316569,0.914575 -0.343388,0.911965 -0.01349,-0.0013 -0.123865,-0.04151 -0.245277,-0.08932 z"
       id="path3797" />
  </g>
</svg>
