<?xml version="1.0" encoding="UTF-8" standalone="no"?>
<svg
   xmlns:dc="http://purl.org/dc/elements/1.1/"
   xmlns:cc="http://creativecommons.org/ns#"
   xmlns:rdf="http://www.w3.org/1999/02/22-rdf-syntax-ns#"
   xmlns:svg="http://www.w3.org/2000/svg"
   xmlns="http://www.w3.org/2000/svg"
   xmlns:sodipodi="http://sodipodi.sourceforge.net/DTD/sodipodi-0.dtd"
   xmlns:inkscape="http://www.inkscape.org/namespaces/inkscape"
   enable-background="new 0 0 48 48"
   height="48px"
   id="Layer_1"
   version="1.1"
   viewBox="0 0 48 48"
   width="48px"
   xml:space="preserve"
   inkscape:version="0.91 r13725"
   sodipodi:docname="AddStatement.svg"
   inkscape:export-filename="/Users/masa/Code2017/PayNote/Design/R32_AddStatement.png"
   inkscape:export-xdpi="60"
   inkscape:export-ydpi="60"><metadata
     id="metadata13"><rdf:RDF><cc:Work
         rdf:about=""><dc:format>image/svg+xml</dc:format><dc:type
           rdf:resource="http://purl.org/dc/dcmitype/StillImage" /><dc:title></dc:title></cc:Work></rdf:RDF></metadata><defs
     id="defs11" /><sodipodi:namedview
     pagecolor="#ffffff"
     bordercolor="#666666"
     borderopacity="1"
     objecttolerance="10"
     gridtolerance="10"
     guidetolerance="10"
     inkscape:pageopacity="0"
     inkscape:pageshadow="2"
     inkscape:window-width="1810"
     inkscape:window-height="1186"
     id="namedview9"
     showgrid="false"
     inkscape:zoom="4.9166667"
     inkscape:cx="-24.101695"
     inkscape:cy="64.677966"
     inkscape:window-x="8"
     inkscape:window-y="79"
     inkscape:window-maximized="0"
     inkscape:current-layer="g3" /><g
     id="g3"><path
       d="M24,0C10.745,0,0,10.746,0,24c0,13.255,10.745,24,24,24s24-10.744,24-24C48,10.746,37.255,0,24,0z    M24.029,43.844c-11.023,0-19.959-8.936-19.959-19.958S13.006,3.926,24.029,3.926c11.022,0,19.959,8.936,19.959,19.959   S35.052,43.844,24.029,43.844z"
       id="path5"
       fill="#231F20"
       style="fill:#007aff;fill-opacity:1" /><path
       d="m 36.588093,20.780736 -9.600358,0 0.01189,-9.775775 C 26.960965,10.33005 26.671085,8.992125 25.020978,8.989152 l -2.347316,-0.0029 c -1.755656,-0.0015 -1.905801,1.73187 -1.91472,2.18528 l -0.0119,9.607791 -9.82186,0 c -1.813631,0 -1.966749,1.398876 -1.974182,1.798766 l 0,2.68923 c 0.0089,0.367186 0.159064,1.751197 1.974182,1.751197 l 9.814429,0 -0.0119,9.814426 c -0.0029,1.812146 1.395904,1.968237 1.797282,1.977158 l 2.689231,0.0029 c 0.367185,-0.0089 1.751193,-0.159086 1.754167,-1.971234 l 0.0119,-9.82186 9.783209,0 c 0.674909,-0.04014 2.012835,-0.331506 2.012835,-1.981617 l 0,-2.345827 c -0.0016,-1.755657 -1.734844,-1.902829 -2.188253,-1.911748 z"
       id="path7"
       inkscape:connector-curvature="0"
       style="fill:#007aff;fill-opacity:1" /></g></svg>